<?xml version="1.0" encoding="UTF-8"?>
<svg width="136px" height="96px" viewBox="0 0 136 96" version="1.1" xmlns="http://www.w3.org/2000/svg" xmlns:xlink="http://www.w3.org/1999/xlink">
    <!-- Generator: Sketch 42 (36781) - http://www.bohemiancoding.com/sketch -->
    <title>Page 1@3x</title>
    <desc>Created with Sketch.</desc>
    <defs>
        <polygon id="path-1" points="56.6603 81 0.9293 81 0.9293 0.6992 56.6603 0.6992 56.6603 81"></polygon>
        <polygon id="path-3" points="49.333 0.8853 49.333 75.9103 0.9454 75.9103 0.9454 0.8853 49.333 0.8853"></polygon>
    </defs>
    <g id="Icons" stroke="none" stroke-width="1" fill="none" fill-rule="evenodd">
        <g id="Page-1">
            <path d="M32.4961,8.1416 L18.8771,8.1416 C17.7811,8.1416 16.8921,7.2516 16.8921,6.1566 L16.8921,1.9856 C16.8921,0.8886 17.7811,-0.0004 18.8771,-0.0004 L32.4961,-0.0004 C33.5931,-0.0004 34.4801,0.8886 34.4801,1.9856 L34.4801,6.1566 C34.4801,7.2516 33.5931,8.1416 32.4961,8.1416" id="Fill-1" fill="#03a9f4"></path>
            <path d="M63.918,25.5517 L66.46,25.5517 C66.918,25.5517 67.291,25.9247 67.291,26.3837 L67.291,55.8077 C67.291,56.2667 66.918,56.6377 66.46,56.6377 L63.918,56.6377 C63.459,56.6377 63.086,56.2667 63.086,55.8077 L63.086,26.3837 C63.086,25.9247 63.459,25.5517 63.918,25.5517" id="Fill-3" fill="#03a9f4"></path>
            <path d="M63.1035,55.8125 L63.1035,53.2715 C63.1035,52.8115 63.4755,52.4405 63.9345,52.4405 L86.6365,52.4405 C87.0955,52.4405 87.4665,52.8115 87.4665,53.2715 L87.4665,55.8125 C87.4665,56.2715 87.0955,56.6435 86.6365,56.6435 L63.9345,56.6435 C63.4755,56.6435 63.1035,56.2715 63.1035,55.8125" id="Fill-5" fill="#03a9f4"></path>
            <path d="M42.1191,81.9844 L27.0581,81.9844 L26.5821,81.9844 L14.0991,81.9844 C9.2111,81.9844 5.2321,78.0064 5.2321,73.1184 L5.2321,26.3114 C5.2321,21.4214 9.2111,17.4424 14.0991,17.4424 L32.1991,17.4424 C34.1311,15.5324 36.2241,13.7864 38.4471,12.2114 L14.0991,12.2114 C6.3121,12.2114 0.0001,18.5234 0.0001,26.3114 L0.0001,73.1184 C0.0001,80.9054 6.3121,87.2174 14.0991,87.2174 L26.5821,87.2174 L31.4911,87.2174 L42.1191,87.2174 L42.1191,81.9844 Z" id="Fill-7" fill="#03a9f4"></path>
            <path d="M42.1191,79.6777 C34.8711,72.9477 30.3081,63.3637 30.3081,52.6917 C30.3081,32.3307 46.8141,15.8257 67.1741,15.8257 C69.6071,15.8257 71.9801,16.0757 74.2791,16.5237 L74.2791,10.6987 C71.9281,10.2977 69.5121,10.0737 67.0431,10.0737 C43.5081,10.0737 24.4281,29.1567 24.4281,52.6917 C24.4281,66.9197 31.4051,79.5067 42.1191,87.2487 L42.1191,79.6777 Z" id="Fill-9" fill="#03a9f4"></path>
            <g id="Group-13" transform="translate(53.000000, 14.307600)">
                <mask id="mask-2" fill="white">
                    <use xlink:href="#path-1"></use>
                </mask>
                <g id="Clip-12"></g>
                <path d="M33.9453,7.3032 C44.2133,13.8462 51.0413,25.3042 51.0413,38.3842 C51.0413,58.7432 34.5353,75.2492 14.1753,75.2492 C9.4993,75.2492 5.0453,74.3442 0.9293,72.7562 L0.9293,78.9342 C5.0623,80.2702 9.4663,81.0002 14.0433,81.0002 C37.5803,81.0002 56.6603,61.9212 56.6603,38.3842 C56.6603,22.0372 47.4523,7.8492 33.9453,0.6992 L33.9453,7.3032 Z" id="Fill-11" fill="#03a9f4" mask="url(#mask-2)"></path>
            </g>
            <g id="Group-16" transform="translate(86.000000, 11.307600)">
                <mask id="mask-4" fill="white">
                    <use xlink:href="#path-3"></use>
                </mask>
                <g id="Clip-15"></g>
                <path d="M35.2324,0.9023 L16.4804,0.9023 L16.4804,0.8853 L0.9454,0.8853 L0.9454,6.1163 L15.8694,6.1163 C15.8754,6.1243 15.8824,6.1303 15.8884,6.1353 L35.2324,6.1353 C40.1224,6.1353 44.0994,10.1143 44.0994,15.0033 L44.0994,61.8103 C44.0994,66.6993 40.1224,70.6763 35.2324,70.6763 L21.0294,70.6763 C19.6714,72.5243 18.1884,74.2693 16.5954,75.9103 L35.2324,75.9103 C43.0194,75.9103 49.3334,69.5973 49.3334,61.8103 L49.3334,15.0033 C49.3334,7.2143 43.0194,0.9023 35.2324,0.9023" id="Fill-14" fill="#03a9f4" mask="url(#mask-4)"></path>
            </g>
        </g>
    </g>
</svg>
